<?xml version="1.0" standalone="no"?>
<!DOCTYPE svg PUBLIC "-//W3C//DTD SVG 20010904//EN"
 "http://www.w3.org/TR/2001/REC-SVG-20010904/DTD/svg10.dtd">
<svg version="1.0" xmlns="http://www.w3.org/2000/svg"
 width="488.000000pt" height="133.000000pt" viewBox="0 0 488.000000 133.000000"
 preserveAspectRatio="xMidYMid meet">
<metadata>
Created by potrace 1.16, written by Peter Selinger 2001-2019
</metadata>
<g transform="translate(0.000000,133.000000) scale(0.100000,-0.100000)"
fill="#000000" stroke="none">
<path d="M554 1316 c-160 -31 -279 -91 -379 -191 -122 -122 -175 -260 -175
-461 0 -188 47 -322 156 -442 239 -264 717 -296 1015 -66 260 200 307 638 98
917 -78 104 -227 198 -371 232 -92 22 -259 27 -344 11z m251 -70 c94 -43 182
-169 219 -312 73 -282 21 -616 -119 -772 -118 -131 -284 -136 -404 -12 -53 55
-115 179 -138 277 -27 117 -24 388 5 496 43 159 125 277 223 325 62 30 149 29
214 -2z"/>
<path d="M1470 665 l0 -635 165 0 165 0 0 38 c0 77 -40 195 -124 366 -127 259
-146 342 -145 631 l0 150 33 -70 c18 -38 41 -87 51 -108 27 -57 72 -97 150
-133 109 -50 110 -52 95 -181 -22 -188 1 -262 164 -522 l108 -171 179 0 179 0
0 635 0 635 -160 0 -160 0 0 -52 c0 -86 28 -175 112 -353 130 -274 148 -344
147 -553 l0 -137 -62 122 c-68 134 -102 176 -217 263 -98 75 -114 98 -106 159
26 205 21 231 -82 411 l-78 135 -207 3 -207 2 0 -635z"/>
<path d="M2590 1174 c0 -172 7 -191 109 -297 111 -115 111 -115 -6 -293 -90
-138 -103 -187 -103 -386 l0 -168 273 0 c310 0 368 8 487 66 143 71 243 204
291 389 15 61 20 111 20 210 1 147 -20 249 -68 338 -40 74 -129 159 -204 196
-124 60 -155 64 -491 69 l-308 4 0 -128z m507 38 c206 -106 292 -430 203 -760
-61 -222 -193 -362 -342 -362 l-58 0 0 123 c0 155 15 218 85 356 90 181 91
223 6 334 -78 101 -84 119 -89 236 l-4 104 78 -5 c54 -3 92 -12 121 -26z"/>
<path d="M3971 858 c-112 -244 -213 -470 -223 -503 -14 -44 -19 -82 -16 -142
3 -71 7 -86 33 -124 52 -73 138 -102 233 -79 107 25 160 104 213 314 22 88 40
137 56 157 50 59 74 29 107 -137 44 -220 92 -298 204 -330 157 -46 282 37 299
198 9 87 -22 180 -212 651 l-178 437 -156 0 -156 0 -204 -442z m379 -126 c168
-409 194 -488 171 -516 -36 -44 -66 -3 -95 130 -40 178 -61 214 -127 214 -51
0 -81 -38 -114 -142 -14 -45 -33 -97 -41 -115 -36 -75 -112 -53 -156 46 -39
85 -34 273 10 401 32 91 177 398 183 386 4 -6 80 -188 169 -404z"/>
</g>
</svg>
